<mxfile host="Electron" agent="Mozilla/5.0 (Windows NT 10.0; Win64; x64) AppleWebKit/537.36 (KHTML, like Gecko) draw.io/25.0.2 Chrome/128.0.6613.186 Electron/32.2.5 Safari/537.36" version="25.0.2">
  <diagram name="Seite-1" id="ZFiTChfzUcLQORlsCUZ4">
    <mxGraphModel dx="1098" dy="1180" grid="1" gridSize="10" guides="1" tooltips="1" connect="1" arrows="1" fold="1" page="1" pageScale="1" pageWidth="1169" pageHeight="1654" math="0" shadow="0">
      <root>
        <mxCell id="0" />
        <mxCell id="1" parent="0" />
        <mxCell id="qKSm6-fTOv15Phxt7VHX-13" style="edgeStyle=orthogonalEdgeStyle;rounded=0;orthogonalLoop=1;jettySize=auto;html=1;curved=1;exitX=0.5;exitY=0;exitDx=0;exitDy=0;" edge="1" parent="1" source="qKSm6-fTOv15Phxt7VHX-1" target="qKSm6-fTOv15Phxt7VHX-12">
          <mxGeometry relative="1" as="geometry" />
        </mxCell>
        <mxCell id="qKSm6-fTOv15Phxt7VHX-15" value="&lt;font style=&quot;font-size: 14px;&quot;&gt;Cached Check&lt;/font&gt;" style="edgeLabel;html=1;align=center;verticalAlign=middle;resizable=0;points=[];" vertex="1" connectable="0" parent="qKSm6-fTOv15Phxt7VHX-13">
          <mxGeometry x="0.2218" y="4" relative="1" as="geometry">
            <mxPoint as="offset" />
          </mxGeometry>
        </mxCell>
        <mxCell id="qKSm6-fTOv15Phxt7VHX-1" value="" style="shape=actor;whiteSpace=wrap;html=1;fillColor=#dae8fc;strokeColor=#6c8ebf;" vertex="1" parent="1">
          <mxGeometry x="390" y="490" width="90" height="110" as="geometry" />
        </mxCell>
        <mxCell id="qKSm6-fTOv15Phxt7VHX-3" value="" style="group;fillColor=#dae8fc;strokeColor=#6c8ebf;" vertex="1" connectable="0" parent="1">
          <mxGeometry x="190" y="290" width="160" height="36" as="geometry" />
        </mxCell>
        <mxCell id="qKSm6-fTOv15Phxt7VHX-4" value="" style="rounded=1;whiteSpace=wrap;html=1;strokeWidth=4;fillColor=#dae8fc;strokeColor=#6c8ebf;" vertex="1" parent="qKSm6-fTOv15Phxt7VHX-3">
          <mxGeometry width="160" height="36" as="geometry" />
        </mxCell>
        <mxCell id="qKSm6-fTOv15Phxt7VHX-5" value="" style="ellipse;whiteSpace=wrap;html=1;aspect=fixed;strokeWidth=3;fillColor=#dae8fc;strokeColor=#6c8ebf;" vertex="1" parent="qKSm6-fTOv15Phxt7VHX-3">
          <mxGeometry x="20" y="12" width="12" height="12" as="geometry" />
        </mxCell>
        <mxCell id="qKSm6-fTOv15Phxt7VHX-6" value="" style="rounded=1;whiteSpace=wrap;html=1;strokeWidth=3;fillColor=#dae8fc;strokeColor=#6c8ebf;" vertex="1" parent="qKSm6-fTOv15Phxt7VHX-3">
          <mxGeometry x="54" y="6" width="28" height="10" as="geometry" />
        </mxCell>
        <mxCell id="qKSm6-fTOv15Phxt7VHX-7" value="" style="rounded=1;whiteSpace=wrap;html=1;strokeWidth=3;fillColor=#dae8fc;strokeColor=#6c8ebf;" vertex="1" parent="qKSm6-fTOv15Phxt7VHX-3">
          <mxGeometry x="88" y="6" width="28" height="10" as="geometry" />
        </mxCell>
        <mxCell id="qKSm6-fTOv15Phxt7VHX-8" value="" style="rounded=1;whiteSpace=wrap;html=1;strokeWidth=3;fillColor=#dae8fc;strokeColor=#6c8ebf;" vertex="1" parent="qKSm6-fTOv15Phxt7VHX-3">
          <mxGeometry x="122" y="6" width="28" height="10" as="geometry" />
        </mxCell>
        <mxCell id="qKSm6-fTOv15Phxt7VHX-9" value="" style="rounded=1;whiteSpace=wrap;html=1;strokeWidth=3;fillColor=#dae8fc;strokeColor=#6c8ebf;" vertex="1" parent="qKSm6-fTOv15Phxt7VHX-3">
          <mxGeometry x="54" y="20" width="28" height="10" as="geometry" />
        </mxCell>
        <mxCell id="qKSm6-fTOv15Phxt7VHX-10" value="" style="rounded=1;whiteSpace=wrap;html=1;strokeWidth=3;fillColor=#dae8fc;strokeColor=#6c8ebf;" vertex="1" parent="qKSm6-fTOv15Phxt7VHX-3">
          <mxGeometry x="88" y="20" width="28" height="10" as="geometry" />
        </mxCell>
        <mxCell id="qKSm6-fTOv15Phxt7VHX-11" value="" style="rounded=1;whiteSpace=wrap;html=1;strokeWidth=3;fillColor=#dae8fc;strokeColor=#6c8ebf;" vertex="1" parent="qKSm6-fTOv15Phxt7VHX-3">
          <mxGeometry x="122" y="20" width="28" height="10" as="geometry" />
        </mxCell>
        <mxCell id="qKSm6-fTOv15Phxt7VHX-12" value="&lt;font style=&quot;font-size: 14px;&quot;&gt;Last Check&lt;/font&gt;&lt;div&gt;&lt;font style=&quot;font-size: 14px;&quot;&gt;Result&lt;/font&gt;&lt;/div&gt;" style="rounded=1;whiteSpace=wrap;html=1;fillColor=#ffe6cc;strokeColor=#d79b00;" vertex="1" parent="1">
          <mxGeometry x="480" y="278" width="120" height="60" as="geometry" />
        </mxCell>
        <mxCell id="qKSm6-fTOv15Phxt7VHX-14" style="edgeStyle=orthogonalEdgeStyle;rounded=0;orthogonalLoop=1;jettySize=auto;html=1;entryX=0.563;entryY=1.111;entryDx=0;entryDy=0;entryPerimeter=0;curved=1;exitX=0.5;exitY=0;exitDx=0;exitDy=0;" edge="1" parent="1" source="qKSm6-fTOv15Phxt7VHX-1" target="qKSm6-fTOv15Phxt7VHX-4">
          <mxGeometry relative="1" as="geometry" />
        </mxCell>
        <mxCell id="qKSm6-fTOv15Phxt7VHX-16" value="&lt;font style=&quot;font-size: 14px;&quot;&gt;Actual Check&lt;/font&gt;" style="edgeLabel;html=1;align=center;verticalAlign=middle;resizable=0;points=[];" vertex="1" connectable="0" parent="qKSm6-fTOv15Phxt7VHX-14">
          <mxGeometry x="0.2275" y="-3" relative="1" as="geometry">
            <mxPoint as="offset" />
          </mxGeometry>
        </mxCell>
        <mxCell id="qKSm6-fTOv15Phxt7VHX-17" value="&lt;b&gt;&lt;font style=&quot;font-size: 14px;&quot;&gt;?&lt;/font&gt;&lt;/b&gt;" style="whiteSpace=wrap;html=1;shape=mxgraph.basic.cloud_callout" vertex="1" parent="1">
          <mxGeometry x="460" y="450" width="90" height="60" as="geometry" />
        </mxCell>
      </root>
    </mxGraphModel>
  </diagram>
</mxfile>
